<svg width="25" height="24" viewBox="0 0 25 24" fill="none" xmlns="http://www.w3.org/2000/svg">
<path fill-rule="evenodd" clip-rule="evenodd" d="M19.6462 20.6874C24.48 14.0656 26.0043 8.97076 24.3356 5.60291C22.8086 2.52242 16.4921 0.659417 5.41401 7.4046e-06C4.60884 -0.00276906 4.81291 0.776029 5.59448 1.04118C10.5852 2.73621 14.8623 5.60569 17.1862 8.30996C18.6203 10.2424 18.7494 13.048 18.5744 14.6889C18.2607 17.7263 17.922 19.8267 16.8586 22.7365C16.6573 23.2848 17.3306 23.8471 17.8442 23.1613C18.4364 22.373 19.0181 21.577 19.5892 20.7735L19.6448 20.6874H19.6462ZM10.6907 22.2311C14.0016 17.4556 14.9942 13.7976 13.7476 11.4029C12.637 9.26784 8.3293 7.99483 0.837013 7.58392C-0.143078 7.52978 -0.293007 8.23639 0.549649 8.56401C4.03966 9.9217 6.63427 11.4612 8.30153 13.2201C8.31542 13.2382 8.3293 13.2562 8.34596 13.2743C9.61758 14.6736 9.73141 16.9031 9.61758 18.1886C9.47042 20.0322 9.28995 21.4093 8.80824 23.053C8.58196 23.8165 9.20527 24.3885 9.70642 23.6721C10.0385 23.1946 10.3666 22.7142 10.6907 22.2311Z" fill="#242424"/>
</svg>
